<mxfile host="app.diagrams.net" modified="2024-04-23T02:16:40.936Z" agent="Mozilla/5.0 (Windows NT 10.0; Win64; x64) AppleWebKit/537.36 (KHTML, like Gecko) Chrome/124.0.0.0 Safari/537.36" etag="AOTtZzzOUjAogv_MA6Lm" version="24.2.7" type="github">
  <diagram name="Page-1" id="HR8k2efPUCRG90z_r8_K">
    <mxGraphModel dx="2135" dy="1924" grid="1" gridSize="10" guides="1" tooltips="1" connect="1" arrows="1" fold="1" page="1" pageScale="1" pageWidth="850" pageHeight="1100" math="0" shadow="0">
      <root>
        <mxCell id="0" />
        <mxCell id="1" parent="0" />
        <mxCell id="Qw63-wXuHICuZPtXQRaW-1" value="leaf1&lt;div&gt;int-A&lt;/div&gt;" style="rounded=0;whiteSpace=wrap;html=1;fillColor=#fff2cc;strokeColor=#d6b656;" parent="1" vertex="1">
          <mxGeometry x="67" y="280" width="120" height="60" as="geometry" />
        </mxCell>
        <mxCell id="Qw63-wXuHICuZPtXQRaW-2" value="leaf2&lt;div&gt;int-B&lt;/div&gt;" style="rounded=0;whiteSpace=wrap;html=1;fillColor=#fff2cc;strokeColor=#d6b656;" parent="1" vertex="1">
          <mxGeometry x="231" y="280" width="120" height="60" as="geometry" />
        </mxCell>
        <mxCell id="Qw63-wXuHICuZPtXQRaW-3" value="leaf3&lt;div&gt;int-A&lt;/div&gt;" style="rounded=0;whiteSpace=wrap;html=1;fillColor=#fff2cc;strokeColor=#d6b656;" parent="1" vertex="1">
          <mxGeometry x="472" y="280" width="120" height="60" as="geometry" />
        </mxCell>
        <mxCell id="Qw63-wXuHICuZPtXQRaW-4" value="leaf4&lt;div&gt;int-B&lt;/div&gt;" style="rounded=0;whiteSpace=wrap;html=1;fillColor=#fff2cc;strokeColor=#d6b656;" parent="1" vertex="1">
          <mxGeometry x="628" y="280" width="120" height="60" as="geometry" />
        </mxCell>
        <mxCell id="Qw63-wXuHICuZPtXQRaW-5" value="spine1" style="rounded=0;whiteSpace=wrap;html=1;fillColor=#f5f5f5;fontColor=#333333;strokeColor=#666666;" parent="1" vertex="1">
          <mxGeometry x="151" y="80" width="120" height="60" as="geometry" />
        </mxCell>
        <mxCell id="Qw63-wXuHICuZPtXQRaW-6" value="spine2" style="rounded=0;whiteSpace=wrap;html=1;fillColor=#f5f5f5;fontColor=#333333;strokeColor=#666666;" parent="1" vertex="1">
          <mxGeometry x="551" y="80" width="120" height="60" as="geometry" />
        </mxCell>
        <mxCell id="Qw63-wXuHICuZPtXQRaW-7" value="" style="endArrow=none;html=1;rounded=0;entryX=0.25;entryY=1;entryDx=0;entryDy=0;exitX=0.25;exitY=0;exitDx=0;exitDy=0;" parent="1" target="Qw63-wXuHICuZPtXQRaW-5" edge="1">
          <mxGeometry width="50" height="50" relative="1" as="geometry">
            <mxPoint x="101" y="280" as="sourcePoint" />
            <mxPoint x="481" y="300" as="targetPoint" />
            <Array as="points" />
          </mxGeometry>
        </mxCell>
        <mxCell id="Qw63-wXuHICuZPtXQRaW-8" value="" style="endArrow=none;html=1;rounded=0;entryX=0;entryY=1;entryDx=0;entryDy=0;exitX=0.5;exitY=0;exitDx=0;exitDy=0;" parent="1" target="Qw63-wXuHICuZPtXQRaW-6" edge="1">
          <mxGeometry width="50" height="50" relative="1" as="geometry">
            <mxPoint x="131" y="280" as="sourcePoint" />
            <mxPoint x="322" y="150" as="targetPoint" />
            <Array as="points" />
          </mxGeometry>
        </mxCell>
        <mxCell id="Qw63-wXuHICuZPtXQRaW-9" value="" style="endArrow=none;html=1;rounded=0;exitX=0.363;exitY=-0.02;exitDx=0;exitDy=0;exitPerimeter=0;entryX=0.5;entryY=1;entryDx=0;entryDy=0;" parent="1" source="Qw63-wXuHICuZPtXQRaW-3" target="Qw63-wXuHICuZPtXQRaW-6" edge="1">
          <mxGeometry width="50" height="50" relative="1" as="geometry">
            <mxPoint x="531" y="200" as="sourcePoint" />
            <mxPoint x="581" y="150" as="targetPoint" />
          </mxGeometry>
        </mxCell>
        <mxCell id="Qw63-wXuHICuZPtXQRaW-10" value="" style="endArrow=none;html=1;rounded=0;entryX=0.5;entryY=1;entryDx=0;entryDy=0;exitX=0.5;exitY=0;exitDx=0;exitDy=0;" parent="1" source="Qw63-wXuHICuZPtXQRaW-2" target="Qw63-wXuHICuZPtXQRaW-5" edge="1">
          <mxGeometry width="50" height="50" relative="1" as="geometry">
            <mxPoint x="281" y="280" as="sourcePoint" />
            <mxPoint x="241" y="160" as="targetPoint" />
          </mxGeometry>
        </mxCell>
        <mxCell id="Qw63-wXuHICuZPtXQRaW-11" value="" style="endArrow=none;html=1;rounded=0;entryX=0.5;entryY=1;entryDx=0;entryDy=0;" parent="1" target="Qw63-wXuHICuZPtXQRaW-6" edge="1">
          <mxGeometry width="50" height="50" relative="1" as="geometry">
            <mxPoint x="651" y="280" as="sourcePoint" />
            <mxPoint x="701" y="230" as="targetPoint" />
          </mxGeometry>
        </mxCell>
        <mxCell id="Qw63-wXuHICuZPtXQRaW-12" value="" style="endArrow=none;html=1;rounded=0;exitX=0.5;exitY=0;exitDx=0;exitDy=0;entryX=1;entryY=1;entryDx=0;entryDy=0;" parent="1" target="Qw63-wXuHICuZPtXQRaW-5" edge="1">
          <mxGeometry width="50" height="50" relative="1" as="geometry">
            <mxPoint x="692" y="280" as="sourcePoint" />
            <mxPoint x="281" y="150" as="targetPoint" />
          </mxGeometry>
        </mxCell>
        <mxCell id="Qw63-wXuHICuZPtXQRaW-13" value="" style="endArrow=none;html=1;rounded=0;entryX=0;entryY=1;entryDx=0;entryDy=0;" parent="1" target="Qw63-wXuHICuZPtXQRaW-6" edge="1">
          <mxGeometry width="50" height="50" relative="1" as="geometry">
            <mxPoint x="321" y="280" as="sourcePoint" />
            <mxPoint x="371" y="230" as="targetPoint" />
          </mxGeometry>
        </mxCell>
        <mxCell id="Qw63-wXuHICuZPtXQRaW-15" value="" style="endArrow=none;html=1;rounded=0;exitX=0.25;exitY=0;exitDx=0;exitDy=0;entryX=0.75;entryY=1;entryDx=0;entryDy=0;" parent="1" source="Qw63-wXuHICuZPtXQRaW-3" target="Qw63-wXuHICuZPtXQRaW-5" edge="1">
          <mxGeometry width="50" height="50" relative="1" as="geometry">
            <mxPoint x="461" y="280" as="sourcePoint" />
            <mxPoint x="511" y="230" as="targetPoint" />
          </mxGeometry>
        </mxCell>
        <mxCell id="Qw63-wXuHICuZPtXQRaW-16" value="VTEP1&lt;div&gt;vni:5001&lt;/div&gt;&lt;div&gt;ip:1.1.1.1&lt;/div&gt;" style="text;html=1;align=center;verticalAlign=middle;whiteSpace=wrap;rounded=0;fillColor=#fad7ac;strokeColor=#b46504;" parent="1" vertex="1">
          <mxGeometry x="3" y="256" width="60" height="76" as="geometry" />
        </mxCell>
        <mxCell id="Qw63-wXuHICuZPtXQRaW-20" value="node1" style="rounded=0;whiteSpace=wrap;html=1;fillColor=#dae8fc;strokeColor=#6c8ebf;" parent="1" vertex="1">
          <mxGeometry x="151" y="439" width="50" height="30" as="geometry" />
        </mxCell>
        <mxCell id="Qw63-wXuHICuZPtXQRaW-21" value="node2" style="rounded=0;whiteSpace=wrap;html=1;fillColor=#dae8fc;strokeColor=#6c8ebf;" parent="1" vertex="1">
          <mxGeometry x="151" y="483" width="50" height="30" as="geometry" />
        </mxCell>
        <mxCell id="Qw63-wXuHICuZPtXQRaW-22" value="node3" style="rounded=0;whiteSpace=wrap;html=1;fillColor=#dae8fc;strokeColor=#6c8ebf;" parent="1" vertex="1">
          <mxGeometry x="151" y="529" width="50" height="30" as="geometry" />
        </mxCell>
        <mxCell id="Qw63-wXuHICuZPtXQRaW-29" value="node 1" style="rounded=0;whiteSpace=wrap;html=1;fillColor=#dae8fc;strokeColor=#6c8ebf;" parent="1" vertex="1">
          <mxGeometry x="590" y="439" width="50" height="30" as="geometry" />
        </mxCell>
        <mxCell id="Qw63-wXuHICuZPtXQRaW-30" value="node2" style="rounded=0;whiteSpace=wrap;html=1;fillColor=#dae8fc;strokeColor=#6c8ebf;" parent="1" vertex="1">
          <mxGeometry x="590" y="483" width="50" height="30" as="geometry" />
        </mxCell>
        <mxCell id="Qw63-wXuHICuZPtXQRaW-31" value="node3" style="rounded=0;whiteSpace=wrap;html=1;fillColor=#dae8fc;strokeColor=#6c8ebf;" parent="1" vertex="1">
          <mxGeometry x="590" y="529" width="50" height="30" as="geometry" />
        </mxCell>
        <mxCell id="Qw63-wXuHICuZPtXQRaW-32" value="node N" style="rounded=0;whiteSpace=wrap;html=1;fillColor=#dae8fc;strokeColor=#6c8ebf;" parent="1" vertex="1">
          <mxGeometry x="591" y="587" width="50" height="30" as="geometry" />
        </mxCell>
        <mxCell id="Qw63-wXuHICuZPtXQRaW-33" value="" style="endArrow=none;html=1;rounded=0;entryX=0.5;entryY=1;entryDx=0;entryDy=0;" parent="1" source="Qw63-wXuHICuZPtXQRaW-20" edge="1">
          <mxGeometry width="50" height="50" relative="1" as="geometry">
            <mxPoint x="71" y="460" as="sourcePoint" />
            <mxPoint x="131" y="340" as="targetPoint" />
          </mxGeometry>
        </mxCell>
        <mxCell id="Qw63-wXuHICuZPtXQRaW-34" value="" style="endArrow=none;html=1;rounded=0;entryX=0.25;entryY=1;entryDx=0;entryDy=0;" parent="1" target="Qw63-wXuHICuZPtXQRaW-2" edge="1">
          <mxGeometry width="50" height="50" relative="1" as="geometry">
            <mxPoint x="191" y="440" as="sourcePoint" />
            <mxPoint x="241" y="390" as="targetPoint" />
          </mxGeometry>
        </mxCell>
        <mxCell id="Qw63-wXuHICuZPtXQRaW-35" value="" style="endArrow=none;html=1;rounded=0;entryX=0.25;entryY=1;entryDx=0;entryDy=0;exitX=0;exitY=0.5;exitDx=0;exitDy=0;" parent="1" source="Qw63-wXuHICuZPtXQRaW-21" edge="1">
          <mxGeometry width="50" height="50" relative="1" as="geometry">
            <mxPoint x="51" y="490" as="sourcePoint" />
            <mxPoint x="101" y="340" as="targetPoint" />
          </mxGeometry>
        </mxCell>
        <mxCell id="Qw63-wXuHICuZPtXQRaW-36" value="" style="endArrow=none;html=1;rounded=0;exitX=1;exitY=0.5;exitDx=0;exitDy=0;entryX=0.5;entryY=1;entryDx=0;entryDy=0;" parent="1" source="Qw63-wXuHICuZPtXQRaW-21" target="Qw63-wXuHICuZPtXQRaW-2" edge="1">
          <mxGeometry width="50" height="50" relative="1" as="geometry">
            <mxPoint x="261" y="480" as="sourcePoint" />
            <mxPoint x="311" y="430" as="targetPoint" />
          </mxGeometry>
        </mxCell>
        <mxCell id="Qw63-wXuHICuZPtXQRaW-38" value="" style="endArrow=none;html=1;rounded=0;exitX=1;exitY=0.25;exitDx=0;exitDy=0;entryX=0.75;entryY=1;entryDx=0;entryDy=0;" parent="1" source="Qw63-wXuHICuZPtXQRaW-22" target="Qw63-wXuHICuZPtXQRaW-2" edge="1">
          <mxGeometry width="50" height="50" relative="1" as="geometry">
            <mxPoint x="251" y="560" as="sourcePoint" />
            <mxPoint x="301" y="510" as="targetPoint" />
          </mxGeometry>
        </mxCell>
        <mxCell id="Qw63-wXuHICuZPtXQRaW-39" value="" style="endArrow=none;html=1;rounded=0;exitX=0;exitY=0.25;exitDx=0;exitDy=0;entryX=0.117;entryY=1.013;entryDx=0;entryDy=0;entryPerimeter=0;" parent="1" source="Qw63-wXuHICuZPtXQRaW-22" edge="1">
          <mxGeometry width="50" height="50" relative="1" as="geometry">
            <mxPoint x="431" y="350" as="sourcePoint" />
            <mxPoint x="85.03999999999996" y="340.78" as="targetPoint" />
            <Array as="points" />
          </mxGeometry>
        </mxCell>
        <mxCell id="Qw63-wXuHICuZPtXQRaW-40" value="" style="endArrow=none;html=1;rounded=0;exitX=0.25;exitY=0;exitDx=0;exitDy=0;" parent="1" source="Qw63-wXuHICuZPtXQRaW-29" edge="1">
          <mxGeometry width="50" height="50" relative="1" as="geometry">
            <mxPoint x="521" y="390" as="sourcePoint" />
            <mxPoint x="571" y="340" as="targetPoint" />
          </mxGeometry>
        </mxCell>
        <mxCell id="Qw63-wXuHICuZPtXQRaW-42" value="node N" style="rounded=0;whiteSpace=wrap;html=1;fillColor=#dae8fc;strokeColor=#6c8ebf;" parent="1" vertex="1">
          <mxGeometry x="151" y="588" width="50" height="30" as="geometry" />
        </mxCell>
        <mxCell id="Qw63-wXuHICuZPtXQRaW-45" value="" style="endArrow=none;html=1;rounded=0;entryX=0.5;entryY=1;entryDx=0;entryDy=0;exitX=0;exitY=0.25;exitDx=0;exitDy=0;" parent="1" source="Qw63-wXuHICuZPtXQRaW-30" target="Qw63-wXuHICuZPtXQRaW-3" edge="1">
          <mxGeometry width="50" height="50" relative="1" as="geometry">
            <mxPoint x="531" y="470" as="sourcePoint" />
            <mxPoint x="581" y="420" as="targetPoint" />
          </mxGeometry>
        </mxCell>
        <mxCell id="Qw63-wXuHICuZPtXQRaW-46" value="" style="endArrow=none;html=1;rounded=0;entryX=0.5;entryY=1;entryDx=0;entryDy=0;" parent="1" edge="1">
          <mxGeometry width="50" height="50" relative="1" as="geometry">
            <mxPoint x="641" y="500" as="sourcePoint" />
            <mxPoint x="692" y="340" as="targetPoint" />
          </mxGeometry>
        </mxCell>
        <mxCell id="Qw63-wXuHICuZPtXQRaW-47" value="" style="endArrow=none;html=1;rounded=0;entryX=0.25;entryY=1;entryDx=0;entryDy=0;exitX=0.75;exitY=0;exitDx=0;exitDy=0;" parent="1" source="Qw63-wXuHICuZPtXQRaW-29" edge="1">
          <mxGeometry width="50" height="50" relative="1" as="geometry">
            <mxPoint x="551" y="490" as="sourcePoint" />
            <mxPoint x="662" y="340" as="targetPoint" />
            <Array as="points" />
          </mxGeometry>
        </mxCell>
        <mxCell id="Qw63-wXuHICuZPtXQRaW-48" value="" style="endArrow=none;html=1;rounded=0;entryX=0.75;entryY=1;entryDx=0;entryDy=0;" parent="1" edge="1">
          <mxGeometry width="50" height="50" relative="1" as="geometry">
            <mxPoint x="641" y="540" as="sourcePoint" />
            <mxPoint x="722" y="340" as="targetPoint" />
          </mxGeometry>
        </mxCell>
        <mxCell id="Qw63-wXuHICuZPtXQRaW-49" value="" style="endArrow=none;html=1;rounded=0;entryX=0.315;entryY=1.013;entryDx=0;entryDy=0;exitX=0;exitY=0.5;exitDx=0;exitDy=0;entryPerimeter=0;" parent="1" source="Qw63-wXuHICuZPtXQRaW-31" target="Qw63-wXuHICuZPtXQRaW-3" edge="1">
          <mxGeometry width="50" height="50" relative="1" as="geometry">
            <mxPoint x="574" y="543" as="sourcePoint" />
            <mxPoint x="516" y="392" as="targetPoint" />
          </mxGeometry>
        </mxCell>
        <mxCell id="Qw63-wXuHICuZPtXQRaW-53" value="......" style="text;html=1;align=center;verticalAlign=middle;whiteSpace=wrap;rounded=0;" parent="1" vertex="1">
          <mxGeometry x="141" y="557" width="60" height="30" as="geometry" />
        </mxCell>
        <mxCell id="Qw63-wXuHICuZPtXQRaW-57" value="......" style="text;html=1;align=center;verticalAlign=middle;whiteSpace=wrap;rounded=0;" parent="1" vertex="1">
          <mxGeometry x="586" y="557" width="60" height="30" as="geometry" />
        </mxCell>
        <mxCell id="Qw63-wXuHICuZPtXQRaW-58" value="" style="endArrow=none;html=1;rounded=0;entryX=1;entryY=1;entryDx=0;entryDy=0;exitX=1;exitY=0.75;exitDx=0;exitDy=0;" parent="1" source="Qw63-wXuHICuZPtXQRaW-42" target="Qw63-wXuHICuZPtXQRaW-2" edge="1">
          <mxGeometry width="50" height="50" relative="1" as="geometry">
            <mxPoint x="208" y="598" as="sourcePoint" />
            <mxPoint x="300" y="550" as="targetPoint" />
            <Array as="points" />
          </mxGeometry>
        </mxCell>
        <mxCell id="Qw63-wXuHICuZPtXQRaW-59" value="" style="endArrow=none;html=1;rounded=0;exitX=0;exitY=0.5;exitDx=0;exitDy=0;entryX=0;entryY=1;entryDx=0;entryDy=0;" parent="1" source="Qw63-wXuHICuZPtXQRaW-42" target="Qw63-wXuHICuZPtXQRaW-1" edge="1">
          <mxGeometry width="50" height="50" relative="1" as="geometry">
            <mxPoint x="20" y="580" as="sourcePoint" />
            <mxPoint x="70" y="530" as="targetPoint" />
          </mxGeometry>
        </mxCell>
        <mxCell id="Qw63-wXuHICuZPtXQRaW-60" value="" style="endArrow=none;html=1;rounded=0;exitX=1;exitY=0.5;exitDx=0;exitDy=0;entryX=1;entryY=1;entryDx=0;entryDy=0;" parent="1" source="Qw63-wXuHICuZPtXQRaW-32" target="Qw63-wXuHICuZPtXQRaW-4" edge="1">
          <mxGeometry width="50" height="50" relative="1" as="geometry">
            <mxPoint x="660" y="610" as="sourcePoint" />
            <mxPoint x="710" y="560" as="targetPoint" />
          </mxGeometry>
        </mxCell>
        <mxCell id="Qw63-wXuHICuZPtXQRaW-61" value="" style="endArrow=none;html=1;rounded=0;entryX=0;entryY=1;entryDx=0;entryDy=0;" parent="1" target="Qw63-wXuHICuZPtXQRaW-3" edge="1">
          <mxGeometry width="50" height="50" relative="1" as="geometry">
            <mxPoint x="590" y="600" as="sourcePoint" />
            <mxPoint x="480" y="540" as="targetPoint" />
          </mxGeometry>
        </mxCell>
        <mxCell id="Qw63-wXuHICuZPtXQRaW-62" value="192.168.1.N" style="text;html=1;align=center;verticalAlign=middle;whiteSpace=wrap;rounded=0;" parent="1" vertex="1">
          <mxGeometry x="19" y="587" width="90" height="30" as="geometry" />
        </mxCell>
        <mxCell id="Qw63-wXuHICuZPtXQRaW-63" value="192.168.1.2" style="text;html=1;align=center;verticalAlign=middle;whiteSpace=wrap;rounded=0;" parent="1" vertex="1">
          <mxGeometry x="18" y="441" width="90" height="30" as="geometry" />
        </mxCell>
        <mxCell id="Qw63-wXuHICuZPtXQRaW-64" value="192.168.1.3" style="text;html=1;align=center;verticalAlign=middle;whiteSpace=wrap;rounded=0;" parent="1" vertex="1">
          <mxGeometry x="700" y="439" width="90" height="30" as="geometry" />
        </mxCell>
        <mxCell id="Qw63-wXuHICuZPtXQRaW-66" value="VTEP2&lt;div&gt;vni:5002&lt;/div&gt;&lt;div&gt;ip:2.2.2.2&lt;/div&gt;" style="text;html=1;align=center;verticalAlign=middle;whiteSpace=wrap;rounded=0;fillColor=#fad7ac;strokeColor=#b46504;" parent="1" vertex="1">
          <mxGeometry x="350" y="258" width="60" height="76" as="geometry" />
        </mxCell>
        <mxCell id="Qw63-wXuHICuZPtXQRaW-67" value="VTEP3&lt;div&gt;vni:5003&lt;/div&gt;&lt;div&gt;ip:3.3.3.3&lt;/div&gt;" style="text;html=1;align=center;verticalAlign=middle;whiteSpace=wrap;rounded=0;fillColor=#fad7ac;strokeColor=#b46504;" parent="1" vertex="1">
          <mxGeometry x="417" y="257" width="60" height="76" as="geometry" />
        </mxCell>
        <mxCell id="Qw63-wXuHICuZPtXQRaW-68" value="VTEP4&lt;div&gt;vni:5004&lt;/div&gt;&lt;div&gt;ip:4.4.4.4&lt;/div&gt;" style="text;html=1;align=center;verticalAlign=middle;whiteSpace=wrap;rounded=0;fillColor=#fad7ac;strokeColor=#b46504;" parent="1" vertex="1">
          <mxGeometry x="755" y="258" width="60" height="76" as="geometry" />
        </mxCell>
        <mxCell id="Qw63-wXuHICuZPtXQRaW-70" value="&lt;h1 style=&quot;margin-top: 0px; font-size: 18px;&quot;&gt;&lt;font style=&quot;font-size: 18px;&quot;&gt;node192.168.1.2&amp;nbsp; send packet to node 192.168.1.3 flow:&lt;/font&gt;&lt;/h1&gt;&lt;p style=&quot;font-size: 14px;&quot;&gt;&lt;font style=&quot;font-size: 14px;&quot;&gt;1&lt;font style=&quot;font-size: 14px;&quot;&gt;. node192.168.1.2 send ethernet packet and it will arrive at leaf1&amp;nbsp;&lt;/font&gt;&lt;/font&gt;&lt;/p&gt;&lt;p style=&quot;font-size: 14px;&quot;&gt;&lt;font style=&quot;font-size: 14px;&quot;&gt;&lt;font style=&quot;font-size: 14px;&quot;&gt;2. leaf1 VTEP1 add vxlan header and then send it&amp;nbsp;&lt;/font&gt;&lt;span style=&quot;background-color: rgb(255, 255, 255); color: rgb(13, 13, 13); font-family: Söhne, ui-sans-serif, system-ui, -apple-system, &amp;quot;Segoe UI&amp;quot;, Roboto, Ubuntu, Cantarell, &amp;quot;Noto Sans&amp;quot;, sans-serif, &amp;quot;Helvetica Neue&amp;quot;, Arial, &amp;quot;Apple Color Emoji&amp;quot;, &amp;quot;Segoe UI Emoji&amp;quot;, &amp;quot;Segoe UI Symbol&amp;quot;, &amp;quot;Noto Color Emoji&amp;quot;; white-space-collapse: preserve;&quot;&gt;encapsulated &lt;/span&gt;&lt;font style=&quot;background-color: initial; font-size: 14px;&quot;&gt;to all other VTEP.&amp;nbsp; The VTEP3 receive the packet and&amp;nbsp;&lt;/font&gt;&lt;span style=&quot;white-space-collapse: preserve; background-color: rgb(255, 255, 255); color: rgb(13, 13, 13); font-family: Söhne, ui-sans-serif, system-ui, -apple-system, &amp;quot;Segoe UI&amp;quot;, Roboto, Ubuntu, Cantarell, &amp;quot;Noto Sans&amp;quot;, sans-serif, &amp;quot;Helvetica Neue&amp;quot;, Arial, &amp;quot;Apple Color Emoji&amp;quot;, &amp;quot;Segoe UI Emoji&amp;quot;, &amp;quot;Segoe UI Symbol&amp;quot;, &amp;quot;Noto Color Emoji&amp;quot;;&quot;&gt;strip off the VXLAN header, then send it encapsulated to node192.168.1.3.&lt;/span&gt;&lt;/font&gt;&lt;/p&gt;&lt;p style=&quot;font-size: 14px;&quot;&gt;&lt;font style=&quot;font-size: 14px;&quot;&gt;&lt;span style=&quot;background-color: rgb(255, 255, 255); color: rgb(13, 13, 13); font-family: Söhne, ui-sans-serif, system-ui, -apple-system, &amp;quot;Segoe UI&amp;quot;, Roboto, Ubuntu, Cantarell, &amp;quot;Noto Sans&amp;quot;, sans-serif, &amp;quot;Helvetica Neue&amp;quot;, Arial, &amp;quot;Apple Color Emoji&amp;quot;, &amp;quot;Segoe UI Emoji&amp;quot;, &amp;quot;Segoe UI Symbol&amp;quot;, &amp;quot;Noto Color Emoji&amp;quot;; white-space-collapse: preserve;&quot;&gt;3. node192.168.1.3 send the reply packet to VTEP3. The VTEP3 will add vxlan header and &lt;/span&gt;&lt;font style=&quot;background-color: initial; font-size: 14px;&quot;&gt;then send it&amp;nbsp;&lt;/font&gt;&lt;span style=&quot;white-space-collapse: preserve; background-color: rgb(255, 255, 255); color: rgb(13, 13, 13); font-family: Söhne, ui-sans-serif, system-ui, -apple-system, &amp;quot;Segoe UI&amp;quot;, Roboto, Ubuntu, Cantarell, &amp;quot;Noto Sans&amp;quot;, sans-serif, &amp;quot;Helvetica Neue&amp;quot;, Arial, &amp;quot;Apple Color Emoji&amp;quot;, &amp;quot;Segoe UI Emoji&amp;quot;, &amp;quot;Segoe UI Symbol&amp;quot;, &amp;quot;Noto Color Emoji&amp;quot;;&quot;&gt;encapsulated &lt;/span&gt;&lt;font style=&quot;background-color: initial; font-size: 14px;&quot;&gt;to VETP1. The VTEP1&amp;nbsp;&lt;/font&gt;&lt;font style=&quot;background-color: initial; font-size: 14px;&quot;&gt;receive the packet and&amp;nbsp;&lt;/font&gt;&lt;span style=&quot;white-space-collapse: preserve; background-color: rgb(255, 255, 255); color: rgb(13, 13, 13); font-family: Söhne, ui-sans-serif, system-ui, -apple-system, &amp;quot;Segoe UI&amp;quot;, Roboto, Ubuntu, Cantarell, &amp;quot;Noto Sans&amp;quot;, sans-serif, &amp;quot;Helvetica Neue&amp;quot;, Arial, &amp;quot;Apple Color Emoji&amp;quot;, &amp;quot;Segoe UI Emoji&amp;quot;, &amp;quot;Segoe UI Symbol&amp;quot;, &amp;quot;Noto Color Emoji&amp;quot;;&quot;&gt;strip off the VXLAN header, then send it encapsulated to node192.168.1.2.&lt;/span&gt;&lt;/font&gt;&lt;/p&gt;" style="text;html=1;whiteSpace=wrap;overflow=hidden;rounded=0;" parent="1" vertex="1">
          <mxGeometry x="16" y="668" width="750" height="170" as="geometry" />
        </mxCell>
        <mxCell id="Qw63-wXuHICuZPtXQRaW-71" value="" style="endArrow=none;dashed=1;html=1;rounded=0;fillColor=#f8cecc;strokeColor=#b85450;" parent="1" edge="1">
          <mxGeometry width="50" height="50" relative="1" as="geometry">
            <mxPoint y="244" as="sourcePoint" />
            <mxPoint x="990" y="250" as="targetPoint" />
            <Array as="points" />
          </mxGeometry>
        </mxCell>
        <mxCell id="Qw63-wXuHICuZPtXQRaW-72" value="Layer3" style="text;html=1;align=center;verticalAlign=middle;whiteSpace=wrap;rounded=0;fillColor=#ffcccc;strokeColor=#36393d;" parent="1" vertex="1">
          <mxGeometry x="880" y="194" width="60" height="30" as="geometry" />
        </mxCell>
        <mxCell id="Qw63-wXuHICuZPtXQRaW-73" value="Layer2" style="text;html=1;align=center;verticalAlign=middle;whiteSpace=wrap;rounded=0;fillColor=#f8cecc;strokeColor=#b85450;" parent="1" vertex="1">
          <mxGeometry x="880" y="267" width="60" height="30" as="geometry" />
        </mxCell>
        <mxCell id="Qw63-wXuHICuZPtXQRaW-75" value="vlan 4091" style="text;html=1;align=center;verticalAlign=middle;whiteSpace=wrap;rounded=0;" parent="1" vertex="1">
          <mxGeometry x="66" y="352" width="60" height="30" as="geometry" />
        </mxCell>
        <mxCell id="Qw63-wXuHICuZPtXQRaW-76" value="vlan 4092" style="text;html=1;align=center;verticalAlign=middle;whiteSpace=wrap;rounded=0;" parent="1" vertex="1">
          <mxGeometry x="662" y="379" width="60" height="30" as="geometry" />
        </mxCell>
        <mxCell id="Qw63-wXuHICuZPtXQRaW-77" value="vlan 4091" style="text;html=1;align=center;verticalAlign=middle;whiteSpace=wrap;rounded=0;" parent="1" vertex="1">
          <mxGeometry x="474" y="362" width="60" height="30" as="geometry" />
        </mxCell>
        <mxCell id="Qw63-wXuHICuZPtXQRaW-79" value="vlan 4092" style="text;html=1;align=center;verticalAlign=middle;whiteSpace=wrap;rounded=0;" parent="1" vertex="1">
          <mxGeometry x="284" y="349" width="60" height="30" as="geometry" />
        </mxCell>
        <mxCell id="Qw63-wXuHICuZPtXQRaW-81" value="bandwidth ?" style="text;html=1;align=center;verticalAlign=middle;whiteSpace=wrap;rounded=0;fillColor=#e1d5e7;strokeColor=#9673a6;" parent="1" vertex="1">
          <mxGeometry x="140" y="195" width="80" height="30" as="geometry" />
        </mxCell>
        <mxCell id="DnrcEjppG4UFtmEdDlIw-6" value="original data frame" style="text;html=1;align=center;verticalAlign=middle;whiteSpace=wrap;rounded=0;fontStyle=1" vertex="1" parent="1">
          <mxGeometry x="-142" y="365" width="126" height="30" as="geometry" />
        </mxCell>
        <mxCell id="DnrcEjppG4UFtmEdDlIw-8" value="IP header&lt;div&gt;src-ip:192.168.1.2&lt;/div&gt;&lt;div&gt;dst-ip:192.168.1.3&lt;/div&gt;" style="text;html=1;align=center;verticalAlign=middle;whiteSpace=wrap;rounded=0;fillColor=#60a917;fontColor=#ffffff;strokeColor=#2D7600;" vertex="1" parent="1">
          <mxGeometry x="-142" y="399" width="104" height="47" as="geometry" />
        </mxCell>
        <mxCell id="DnrcEjppG4UFtmEdDlIw-10" value="UDP header" style="text;html=1;align=center;verticalAlign=middle;whiteSpace=wrap;rounded=0;fillColor=#60a917;fontColor=#ffffff;strokeColor=#2D7600;" vertex="1" parent="1">
          <mxGeometry x="-41" y="28" width="64" height="30" as="geometry" />
        </mxCell>
        <mxCell id="DnrcEjppG4UFtmEdDlIw-11" value="vxlan packet&lt;div style=&quot;font-size: 15px;&quot;&gt;src-ip:1.1.1.1&lt;/div&gt;&lt;div style=&quot;font-size: 15px;&quot;&gt;dst-ip:3.3.3.3&lt;/div&gt;" style="text;html=1;align=center;verticalAlign=middle;whiteSpace=wrap;rounded=0;fontStyle=1;fontSize=15;" vertex="1" parent="1">
          <mxGeometry x="-98" y="-30" width="126" height="41" as="geometry" />
        </mxCell>
        <mxCell id="DnrcEjppG4UFtmEdDlIw-12" value="vxlan header" style="text;html=1;align=center;verticalAlign=middle;whiteSpace=wrap;rounded=0;fillColor=#60a917;fontColor=#ffffff;strokeColor=#2D7600;" vertex="1" parent="1">
          <mxGeometry x="24" y="29" width="64" height="30" as="geometry" />
        </mxCell>
        <mxCell id="DnrcEjppG4UFtmEdDlIw-13" value="original data frame" style="text;html=1;align=center;verticalAlign=middle;whiteSpace=wrap;rounded=0;fillColor=#60a917;fontColor=#ffffff;strokeColor=#2D7600;" vertex="1" parent="1">
          <mxGeometry x="89" y="29" width="64" height="30" as="geometry" />
        </mxCell>
        <mxCell id="DnrcEjppG4UFtmEdDlIw-14" value="IP header" style="text;html=1;align=center;verticalAlign=middle;whiteSpace=wrap;rounded=0;fillColor=#60a917;fontColor=#ffffff;strokeColor=#2D7600;" vertex="1" parent="1">
          <mxGeometry x="-106" y="28" width="64" height="30" as="geometry" />
        </mxCell>
        <mxCell id="DnrcEjppG4UFtmEdDlIw-15" value="Ethernet header" style="text;html=1;align=center;verticalAlign=middle;whiteSpace=wrap;rounded=0;fillColor=#60a917;fontColor=#ffffff;strokeColor=#2D7600;" vertex="1" parent="1">
          <mxGeometry x="-170" y="28" width="64" height="30" as="geometry" />
        </mxCell>
        <mxCell id="DnrcEjppG4UFtmEdDlIw-16" value="UDP header" style="text;html=1;align=center;verticalAlign=middle;whiteSpace=wrap;rounded=0;fillColor=#60a917;fontColor=#ffffff;strokeColor=#2D7600;" vertex="1" parent="1">
          <mxGeometry x="507" y="29" width="64" height="30" as="geometry" />
        </mxCell>
        <mxCell id="DnrcEjppG4UFtmEdDlIw-17" value="vxlan packet&lt;div style=&quot;font-size: 15px;&quot;&gt;src-ip:3.3.3.3&amp;nbsp;&lt;/div&gt;&lt;div style=&quot;font-size: 15px;&quot;&gt;dst-ip:1.1.1.1&lt;/div&gt;" style="text;html=1;align=center;verticalAlign=middle;whiteSpace=wrap;rounded=0;fontStyle=1;fontSize=15;" vertex="1" parent="1">
          <mxGeometry x="441" y="-30" width="126" height="41" as="geometry" />
        </mxCell>
        <mxCell id="DnrcEjppG4UFtmEdDlIw-18" value="vxlan header" style="text;html=1;align=center;verticalAlign=middle;whiteSpace=wrap;rounded=0;fillColor=#60a917;fontColor=#ffffff;strokeColor=#2D7600;" vertex="1" parent="1">
          <mxGeometry x="572" y="29" width="64" height="30" as="geometry" />
        </mxCell>
        <mxCell id="DnrcEjppG4UFtmEdDlIw-19" value="IP header" style="text;html=1;align=center;verticalAlign=middle;whiteSpace=wrap;rounded=0;fillColor=#60a917;fontColor=#ffffff;strokeColor=#2D7600;" vertex="1" parent="1">
          <mxGeometry x="442" y="29" width="64" height="30" as="geometry" />
        </mxCell>
        <mxCell id="DnrcEjppG4UFtmEdDlIw-20" value="original data frame" style="text;html=1;align=center;verticalAlign=middle;whiteSpace=wrap;rounded=0;fillColor=#60a917;fontColor=#ffffff;strokeColor=#2D7600;" vertex="1" parent="1">
          <mxGeometry x="636" y="28" width="64" height="30" as="geometry" />
        </mxCell>
        <mxCell id="DnrcEjppG4UFtmEdDlIw-22" value="ethernet&amp;nbsp;&lt;div&gt;header&lt;/div&gt;" style="text;html=1;align=center;verticalAlign=middle;whiteSpace=wrap;rounded=0;fillColor=#60a917;fontColor=#ffffff;strokeColor=#2D7600;" vertex="1" parent="1">
          <mxGeometry x="353" y="464" width="64" height="30" as="geometry" />
        </mxCell>
        <mxCell id="DnrcEjppG4UFtmEdDlIw-23" value="original data frame&lt;div&gt;src-ip:192.168.1.3&amp;nbsp;&lt;/div&gt;&lt;div&gt;dst-ip:192.168.1.2&lt;/div&gt;" style="text;html=1;align=center;verticalAlign=middle;whiteSpace=wrap;rounded=0;fontStyle=1" vertex="1" parent="1">
          <mxGeometry x="354" y="416" width="126" height="30" as="geometry" />
        </mxCell>
        <mxCell id="DnrcEjppG4UFtmEdDlIw-24" value="IP header" style="text;html=1;align=center;verticalAlign=middle;whiteSpace=wrap;rounded=0;fillColor=#60a917;fontColor=#ffffff;strokeColor=#2D7600;" vertex="1" parent="1">
          <mxGeometry x="412" y="464" width="64" height="30" as="geometry" />
        </mxCell>
        <mxCell id="DnrcEjppG4UFtmEdDlIw-25" value="payload" style="text;html=1;align=center;verticalAlign=middle;whiteSpace=wrap;rounded=0;fillColor=#60a917;fontColor=#ffffff;strokeColor=#2D7600;" vertex="1" parent="1">
          <mxGeometry x="476" y="464" width="64" height="30" as="geometry" />
        </mxCell>
        <mxCell id="DnrcEjppG4UFtmEdDlIw-31" value="" style="shape=flexArrow;endArrow=classic;html=1;rounded=0;" edge="1" parent="1">
          <mxGeometry width="50" height="50" relative="1" as="geometry">
            <mxPoint x="29" y="230" as="sourcePoint" />
            <mxPoint x="29" y="90" as="targetPoint" />
          </mxGeometry>
        </mxCell>
        <mxCell id="DnrcEjppG4UFtmEdDlIw-32" value="" style="shape=flexArrow;endArrow=classic;html=1;rounded=0;" edge="1" parent="1">
          <mxGeometry width="50" height="50" relative="1" as="geometry">
            <mxPoint x="455" y="240" as="sourcePoint" />
            <mxPoint x="455" y="100" as="targetPoint" />
          </mxGeometry>
        </mxCell>
        <mxCell id="DnrcEjppG4UFtmEdDlIw-33" value="Ethernet header" style="text;html=1;align=center;verticalAlign=middle;whiteSpace=wrap;rounded=0;fillColor=#60a917;fontColor=#ffffff;strokeColor=#2D7600;" vertex="1" parent="1">
          <mxGeometry x="378" y="29" width="64" height="30" as="geometry" />
        </mxCell>
        <mxCell id="DnrcEjppG4UFtmEdDlIw-35" value="pyload" style="text;html=1;align=center;verticalAlign=middle;whiteSpace=wrap;rounded=0;fillColor=#60a917;fontColor=#ffffff;strokeColor=#2D7600;" vertex="1" parent="1">
          <mxGeometry x="-37" y="399" width="104" height="47" as="geometry" />
        </mxCell>
        <mxCell id="DnrcEjppG4UFtmEdDlIw-36" value="Ethernet header" style="text;html=1;align=center;verticalAlign=middle;whiteSpace=wrap;rounded=0;fillColor=#60a917;fontColor=#ffffff;strokeColor=#2D7600;" vertex="1" parent="1">
          <mxGeometry x="-246" y="399" width="104" height="47" as="geometry" />
        </mxCell>
      </root>
    </mxGraphModel>
  </diagram>
</mxfile>
